name GIL04_static.mot
datacolumns 141
datarows 4
range 1.45000005 1.47500002
endheader

                time	           pelvis_tx	           pelvis_ty	           pelvis_tz	         pelvis_tilt	         pelvis_list	     pelvis_rotation	       hip_flexion_r	     hip_adduction_r	      hip_rotation_r	        knee_angle_r	       ankle_angle_r	    subtalar_angle_r	         mtp_angle_r	       hip_flexion_l	     hip_adduction_l	      hip_rotation_l	        knee_angle_l	       ankle_angle_l	    subtalar_angle_l	         mtp_angle_l	    lumbar_extension	      lumbar_bending	     lumbar_rotation	    ground_marker_px	    ground_marker_py	    ground_marker_pz	    ground_marker_px	    ground_marker_py	    ground_marker_pz	    ground_marker_px	    ground_marker_py	    ground_marker_pz	    ground_marker_px	    ground_marker_py	    ground_marker_pz	    ground_marker_px	    ground_marker_py	    ground_marker_pz	    ground_marker_px	    ground_marker_py	    ground_marker_pz	    ground_marker_px	    ground_marker_py	    ground_marker_pz	    ground_marker_px	    ground_marker_py	    ground_marker_pz	    ground_marker_px	    ground_marker_py	    ground_marker_pz	    ground_marker_px	    ground_marker_py	    ground_marker_pz	    ground_marker_px	    ground_marker_py	    ground_marker_pz	    ground_marker_px	    ground_marker_py	    ground_marker_pz	    ground_marker_px	    ground_marker_py	    ground_marker_pz	    ground_marker_px	    ground_marker_py	    ground_marker_pz	    ground_marker_px	    ground_marker_py	    ground_marker_pz	    ground_marker_px	    ground_marker_py	    ground_marker_pz	    ground_marker_px	    ground_marker_py	    ground_marker_pz	    ground_marker_px	    ground_marker_py	    ground_marker_pz	    ground_marker_px	    ground_marker_py	    ground_marker_pz	    ground_marker_px	    ground_marker_py	    ground_marker_pz	    ground_marker_px	    ground_marker_py	    ground_marker_pz	    ground_marker_px	    ground_marker_py	    ground_marker_pz	    ground_marker_px	    ground_marker_py	    ground_marker_pz	    ground_marker_px	    ground_marker_py	    ground_marker_pz	    ground_marker_px	    ground_marker_py	    ground_marker_pz	    ground_marker_px	    ground_marker_py	    ground_marker_pz	    ground_marker_px	    ground_marker_py	    ground_marker_pz	    ground_marker_px	    ground_marker_py	    ground_marker_pz	    ground_marker_px	    ground_marker_py	    ground_marker_pz	    ground_marker_px	    ground_marker_py	    ground_marker_pz	    ground_marker_px	    ground_marker_py	    ground_marker_pz	    ground_marker_px	    ground_marker_py	    ground_marker_pz	    ground_marker_px	    ground_marker_py	    ground_marker_pz	    ground_marker_px	    ground_marker_py	    ground_marker_pz	    ground_marker_px	    ground_marker_py	    ground_marker_pz	    ground_marker_px	    ground_marker_py	    ground_marker_pz	    ground_marker_px	    ground_marker_py	    ground_marker_pz	    ground_marker_px	    ground_marker_py	    ground_marker_pz	    ground_marker_px	    ground_marker_py	    ground_marker_pz	
          1.45000005	          1.43645620	          0.75331891	         -0.22569811	        -11.54060745	         -1.14897835	         -2.78530097	          8.38880157	         -2.21712708	         -0.32617694	          6.03431511	         -3.28611660	          0.00000000	          0.00000000	          7.46056557	         -5.30127811	         -2.56601453	          2.95543146	          0.11399638	          0.00000000	          0.00000000	         16.73443604	          1.47672725	         -1.11239648	          1.36114419	          0.70157981	         -0.22649772	          1.35884464	          0.70395607	         -0.16367024	          1.36344373	          0.69920355	         -0.28932521	          1.34013212	          0.37432784	         -0.13906206	          1.34163141	          0.37791869	         -0.30781487	          1.35545683	          0.05740204	         -0.10951978	          1.33644843	          0.05923592	         -0.34357679	          1.43645620	          0.75331891	         -0.22569811	          1.43304408	          0.75684488	         -0.13247328	          1.43986833	          0.74979293	         -0.31892297	          1.29783499	          0.81659579	         -0.21419795	          1.29932630	          0.80948853	         -0.26855338	          1.33810854	          0.37819865	         -0.08875129	          1.34154701	          0.38079712	         -0.35773188	          1.33730221	          0.37595850	         -0.18940109	          1.34280133	          0.36613691	         -0.25495738	          1.34542930	          0.05988768	         -0.07765254	          1.33049130	          0.06312116	         -0.37733579	          1.35194540	          0.06519799	         -0.13723275	          1.33281040	          0.06021872	         -0.31378704	          1.29987717	          0.03900578	         -0.11247677	          1.28330445	          0.04088802	         -0.33853304	          1.40011644	          1.11494219	         -0.24427839	          1.45229578	          0.98047739	         -0.23945169	          1.32471645	          1.15002429	         -0.24496408	          1.39911878	          1.12784803	         -0.18410569	          1.40527236	          1.12666976	         -0.29932243	          1.45146084	          0.03996387	         -0.09923241	          1.43216431	          0.03859414	         -0.35743302	          1.34165621	          0.48501161	         -0.02056417	          1.47798598	          0.47557175	         -0.33380967	          1.38173831	          0.53819942	         -0.09105105	          1.41354871	          0.52975237	         -0.27333486	          1.38625932	          0.45348939	         -0.09858589	          1.39686430	          0.44364822	         -0.27450320	          1.31706750	          0.16802792	         -0.01503853	          1.42090368	          0.16314758	         -0.37163043	          1.32969546	          0.21925324	         -0.07880510	          1.36058283	          0.21625035	         -0.34378240	
          1.45833337	          1.43645930	          0.75332832	         -0.22566412	        -11.53254128	         -1.15207922	         -2.78820562	          8.38051605	         -2.21303916	         -0.32272470	          6.04026556	         -3.29286027	          0.00000000	          0.00000000	          7.45173645	         -5.30603218	         -2.57475519	          2.95259833	          0.11689103	          0.00000000	          0.00000000	         16.75764465	          1.48711133	         -1.14565337	          1.36115456	          0.70157850	         -0.22646198	          1.35885322	          0.70395881	         -0.16363472	          1.36345601	          0.69919813	         -0.28928924	          1.34013927	          0.37432066	         -0.13902862	          1.34164166	          0.37791437	         -0.30778560	          1.35549629	          0.05740853	         -0.10950381	          1.33643901	          0.05925921	         -0.34358713	          1.43645930	          0.75332832	         -0.22566412	          1.43304420	          0.75686055	         -0.13243309	          1.43987453	          0.74979603	         -0.31889516	          1.29783905	          0.81658345	         -0.21415864	          1.29932082	          0.80947489	         -0.26852816	          1.33811712	          0.37819093	         -0.08871778	          1.34155154	          0.38079423	         -0.35770255	          1.33733225	          0.37593287	         -0.18936068	          1.34284365	          0.36611006	         -0.25492513	          1.34546936	          0.05989155	         -0.07763621	          1.33047831	          0.06314928	         -0.37734491	          1.35190701	          0.06518210	         -0.13724209	          1.33281219	          0.06020828	         -0.31379175	          1.29986930	          0.03900830	         -0.11248358	          1.28330326	          0.04088224	         -0.33853275	          1.40011334	          1.11494446	         -0.24432276	          1.45236552	          0.98050827	         -0.23948689	          1.32485116	          1.14993834	         -0.24505143	          1.39907277	          1.12784088	         -0.18412098	          1.40529549	          1.12668312	         -0.29938978	          1.45144165	          0.03997147	         -0.09920729	          1.43215716	          0.03859673	         -0.35742521	          1.34165251	          0.48501173	         -0.02052413	          1.47796392	          0.47558147	         -0.33380744	          1.38173664	          0.53816253	         -0.09101930	          1.41353786	          0.52974916	         -0.27329054	          1.38626885	          0.45350116	         -0.09854421	          1.39687705	          0.44364187	         -0.27447364	          1.31706154	          0.16802320	         -0.01502311	          1.42090130	          0.16315430	         -0.37161922	          1.32971478	          0.21923195	         -0.07880162	          1.36061966	          0.21627983	         -0.34378907	
          1.46666670	          1.43646169	          0.75335211	         -0.22562838	        -11.52223396	         -1.15398932	         -2.79145002	          8.36791801	         -2.21072268	         -0.31373757	          6.04297018	         -3.29412484	          0.00000000	          0.00000000	          7.43936539	         -5.31065607	         -2.58584094	          2.95027351	          0.12097001	          0.00000000	          0.00000000	         16.83512115	          1.47565722	         -1.11423254	          1.36116648	          0.70158863	         -0.22642638	          1.35886216	          0.70397186	         -0.16359934	          1.36347067	          0.69920540	         -0.28925341	          1.34013355	          0.37431130	         -0.13899085	          1.34164691	          0.37791747	         -0.30776256	          1.35549295	          0.05742393	         -0.10949215	          1.33641994	          0.05927673	         -0.34358940	          1.43646169	          0.75335211	         -0.22562838	          1.43304217	          0.75688899	         -0.13239045	          1.43988132	          0.74981523	         -0.31886628	          1.29792845	          0.81655568	         -0.21409269	          1.29931533	          0.80945629	         -0.26850188	          1.33811688	          0.37818149	         -0.08867976	          1.34154975	          0.38079974	         -0.35767931	          1.33735597	          0.37594840	         -0.18930461	          1.34286225	          0.36612609	         -0.25484821	          1.34546912	          0.05990472	         -0.07762334	          1.33045447	          0.06317005	         -0.37734595	          1.35186732	          0.06518584	         -0.13722412	          1.33279550	          0.06020337	         -0.31378439	          1.29986000	          0.03900502	         -0.11248823	          1.28330469	          0.04087048	         -0.33853501	          1.40016103	          1.11501646	         -0.24432196	          1.45261931	          0.98066139	         -0.23946644	          1.32485259	          1.14989436	         -0.24509339	          1.39913213	          1.12793303	         -0.18410242	          1.40529692	          1.12674320	         -0.29941773	          1.45141363	          0.03999017	         -0.09917749	          1.43214393	          0.03860707	         -0.35741791	          1.34164190	          0.48501503	         -0.02048422	          1.47793567	          0.47560206	         -0.33381122	          1.38169718	          0.53815025	         -0.09094515	          1.41353595	          0.52976370	         -0.27321741	          1.38625669	          0.45355707	         -0.09847333	          1.39688087	          0.44367465	         -0.27441314	          1.31704736	          0.16802341	         -0.01500224	          1.42089438	          0.16316882	         -0.37161040	          1.32968771	          0.21922699	         -0.07876395	          1.36066020	          0.21637677	         -0.34381741	
          1.47500002	          1.43646288	          0.75338817	         -0.22559321	        -11.52599525	         -1.15456414	         -2.79431224	          8.37061691	         -2.20971036	         -0.30443573	          6.04024267	         -3.29094410	          0.00000000	          0.00000000	          7.44309235	         -5.31470060	         -2.59562159	          2.94587183	          0.12553939	          0.00000000	          0.00000000	         16.96319008	          1.45222640	         -1.03910112	          1.36116433	          0.70162952	         -0.22639288	          1.35885751	          0.70401472	         -0.16356599	          1.36347103	          0.69924426	         -0.28921977	          1.34011984	          0.37431225	         -0.13895075	          1.34164715	          0.37792999	         -0.30774391	          1.35545754	          0.05746743	         -0.10949089	          1.33639514	          0.05928773	         -0.34357899	          1.43646288	          0.75338817	         -0.22559321	          1.43303931	          0.75692815	         -0.13234986	          1.43988633	          0.74984813	         -0.31883657	          1.29831398	          0.81650215	         -0.21393806	          1.29931152	          0.80944026	         -0.26847374	          1.33810937	          0.37818271	         -0.08863944	          1.34154367	          0.38081479	         -0.35766050	          1.33723164	          0.37597355	         -0.18917841	          1.34290099	          0.36615261	         -0.25474590	          1.34543765	          0.05994564	         -0.07762069	          1.33042550	          0.06318235	         -0.37733465	          1.35183954	          0.06520569	         -0.13718671	          1.33270252	          0.06021839	         -0.31375879	          1.29985344	          0.03900074	         -0.11249158	          1.28330970	          0.04086008	         -0.33853698	          1.40028048	          1.11512685	         -0.24430035	          1.45303178	          0.98088723	         -0.23942612	          1.32486796	          1.14985240	         -0.24514338	          1.39930165	          1.12808061	         -0.18407181	          1.40532017	          1.12682831	         -0.29942650	          1.45138156	          0.04001768	         -0.09914779	          1.43212867	          0.03862694	         -0.35741001	          1.34162891	          0.48502550	         -0.02044507	          1.47791469	          0.47562674	         -0.33381027	          1.38158429	          0.53818715	         -0.09088397	          1.41354656	          0.52980465	         -0.27312657	          1.38616538	          0.45364130	         -0.09839377	          1.39689600	          0.44370803	         -0.27433378	          1.31702900	          0.16803227	         -0.01497697	          1.42088294	          0.16318907	         -0.37160328	          1.32957935	          0.21924089	         -0.07869975	          1.36064219	          0.21643275	         -0.34379712	
